<mxfile host="app.diagrams.net" modified="2020-08-30T00:46:10.404Z" agent="5.0 (Windows NT 10.0; Win64; x64) AppleWebKit/537.36 (KHTML, like Gecko) Chrome/84.0.4147.135 Safari/537.36" etag="caNDk6fAQejJCkKO65ni" version="13.6.5" type="github">
  <diagram id="uuW6rX7aH9Ojl2rIszeO" name="Page-1">
    <mxGraphModel dx="1093" dy="577" grid="1" gridSize="10" guides="1" tooltips="1" connect="1" arrows="1" fold="1" page="1" pageScale="1" pageWidth="850" pageHeight="1100" background="none" math="0" shadow="0" extFonts="Old Standard TT^https://fonts.googleapis.com/css?family=Old+Standard+TT">
      <root>
        <mxCell id="0" />
        <mxCell id="1" parent="0" />
        <mxCell id="AuxZQYyjT9rtBiiQ9wMm-1" value="" style="line;strokeWidth=2;fillColor=none;align=left;verticalAlign=middle;spacingTop=-1;spacingLeft=3;spacingRight=3;rotatable=0;labelPosition=right;points=[];portConstraint=eastwest;" vertex="1" parent="1">
          <mxGeometry x="180" y="156" width="70" height="8" as="geometry" />
        </mxCell>
        <mxCell id="AuxZQYyjT9rtBiiQ9wMm-2" value="" style="line;strokeWidth=2;fillColor=none;align=left;verticalAlign=middle;spacingTop=-1;spacingLeft=3;spacingRight=3;rotatable=0;labelPosition=right;points=[];portConstraint=eastwest;" vertex="1" parent="1">
          <mxGeometry x="540" y="156" width="80" height="8" as="geometry" />
        </mxCell>
        <mxCell id="AuxZQYyjT9rtBiiQ9wMm-3" value="" style="line;strokeWidth=2;fillColor=none;align=left;verticalAlign=middle;spacingTop=-1;spacingLeft=3;spacingRight=3;rotatable=0;labelPosition=right;points=[];portConstraint=eastwest;" vertex="1" parent="1">
          <mxGeometry x="270" y="236" width="70" height="8" as="geometry" />
        </mxCell>
        <mxCell id="AuxZQYyjT9rtBiiQ9wMm-4" value="" style="line;strokeWidth=2;fillColor=none;align=left;verticalAlign=middle;spacingTop=-1;spacingLeft=3;spacingRight=3;rotatable=0;labelPosition=right;points=[];portConstraint=eastwest;" vertex="1" parent="1">
          <mxGeometry x="450" y="236" width="70" height="8" as="geometry" />
        </mxCell>
        <mxCell id="AuxZQYyjT9rtBiiQ9wMm-5" value="" style="line;strokeWidth=2;fillColor=none;align=left;verticalAlign=middle;spacingTop=-1;spacingLeft=3;spacingRight=3;rotatable=0;labelPosition=right;points=[];portConstraint=eastwest;" vertex="1" parent="1">
          <mxGeometry x="360" y="316" width="70" height="8" as="geometry" />
        </mxCell>
        <mxCell id="AuxZQYyjT9rtBiiQ9wMm-6" value="&lt;font style=&quot;font-size: 10px&quot; face=&quot;Old Standard TT&quot;&gt;Request&lt;br&gt;Operation&lt;/font&gt;" style="html=1;verticalAlign=bottom;endArrow=classic;entryX=0;entryY=0.377;entryDx=0;entryDy=0;entryPerimeter=0;exitX=0.992;exitY=0.534;exitDx=0;exitDy=0;exitPerimeter=0;endSize=3;startSize=1;endFill=1;labelBackgroundColor=none;" edge="1" parent="1" source="AuxZQYyjT9rtBiiQ9wMm-1" target="AuxZQYyjT9rtBiiQ9wMm-3">
          <mxGeometry x="0.263" y="-24" width="80" relative="1" as="geometry">
            <mxPoint x="279.52" y="159.368" as="sourcePoint" />
            <mxPoint x="300" y="208.928" as="targetPoint" />
            <mxPoint as="offset" />
          </mxGeometry>
        </mxCell>
        <mxCell id="AuxZQYyjT9rtBiiQ9wMm-7" value="&lt;font style=&quot;font-size: 10px&quot; face=&quot;Old Standard TT&quot;&gt;Request&lt;br&gt;Data&lt;br&gt;&lt;/font&gt;" style="html=1;verticalAlign=bottom;endArrow=classic;entryX=0;entryY=0.377;entryDx=0;entryDy=0;entryPerimeter=0;exitX=0.993;exitY=0.421;exitDx=0;exitDy=0;exitPerimeter=0;endSize=3;startSize=1;endFill=1;labelBackgroundColor=none;" edge="1" parent="1" source="AuxZQYyjT9rtBiiQ9wMm-3" target="AuxZQYyjT9rtBiiQ9wMm-5">
          <mxGeometry x="0.263" y="-24" width="80" relative="1" as="geometry">
            <mxPoint x="339.55999999999995" y="207.332" as="sourcePoint" />
            <mxPoint x="360" y="255.99600000000004" as="targetPoint" />
            <mxPoint as="offset" />
          </mxGeometry>
        </mxCell>
        <mxCell id="AuxZQYyjT9rtBiiQ9wMm-10" value="&lt;font style=&quot;font-size: 10px&quot; face=&quot;Old Standard TT&quot;&gt;Return&amp;nbsp;&lt;br&gt;Data&lt;br&gt;&lt;/font&gt;" style="html=1;verticalAlign=bottom;endArrow=classic;endSize=3;startSize=1;endFill=1;labelBackgroundColor=none;exitX=0.985;exitY=0.575;exitDx=0;exitDy=0;exitPerimeter=0;entryX=0.001;entryY=0.622;entryDx=0;entryDy=0;entryPerimeter=0;" edge="1" parent="1" source="AuxZQYyjT9rtBiiQ9wMm-5" target="AuxZQYyjT9rtBiiQ9wMm-4">
          <mxGeometry x="-0.2473" y="-25" width="80" relative="1" as="geometry">
            <mxPoint x="400" y="261" as="sourcePoint" />
            <mxPoint x="419" y="208" as="targetPoint" />
            <mxPoint as="offset" />
          </mxGeometry>
        </mxCell>
        <mxCell id="AuxZQYyjT9rtBiiQ9wMm-11" value="&lt;font style=&quot;font-size: 10px&quot; face=&quot;Old Standard TT&quot;&gt;Return&amp;nbsp;&lt;br&gt;Result&lt;br&gt;&lt;/font&gt;" style="html=1;verticalAlign=bottom;endArrow=classic;endSize=3;startSize=1;endFill=1;labelBackgroundColor=none;exitX=0.994;exitY=0.604;exitDx=0;exitDy=0;exitPerimeter=0;entryX=0.001;entryY=0.629;entryDx=0;entryDy=0;entryPerimeter=0;" edge="1" parent="1" source="AuxZQYyjT9rtBiiQ9wMm-4" target="AuxZQYyjT9rtBiiQ9wMm-2">
          <mxGeometry x="-0.2473" y="-25" width="80" relative="1" as="geometry">
            <mxPoint x="460.35999999999996" y="211.99999999999997" as="sourcePoint" />
            <mxPoint x="479.99999999999994" y="160.37600000000006" as="targetPoint" />
            <mxPoint as="offset" />
          </mxGeometry>
        </mxCell>
        <mxCell id="AuxZQYyjT9rtBiiQ9wMm-13" value="&lt;font face=&quot;Old Standard TT&quot; style=&quot;font-size: 10px&quot;&gt;Wait for Result&lt;/font&gt;" style="html=1;verticalAlign=bottom;endArrow=none;dashed=1;endSize=8;dashPattern=1 2;labelBackgroundColor=none;strokeWidth=1;endFill=0;exitX=0.016;exitY=0.556;exitDx=0;exitDy=0;exitPerimeter=0;entryX=0.994;entryY=0.534;entryDx=0;entryDy=0;entryPerimeter=0;" edge="1" parent="1" source="AuxZQYyjT9rtBiiQ9wMm-2" target="AuxZQYyjT9rtBiiQ9wMm-1">
          <mxGeometry relative="1" as="geometry">
            <mxPoint x="420.35999999999996" y="159.90000000000003" as="sourcePoint" />
            <mxPoint x="280" y="160" as="targetPoint" />
          </mxGeometry>
        </mxCell>
        <mxCell id="AuxZQYyjT9rtBiiQ9wMm-14" value="&lt;font face=&quot;Old Standard TT&quot; style=&quot;font-size: 11px&quot;&gt;User Interface&lt;/font&gt;" style="text;html=1;strokeColor=none;fillColor=none;align=center;verticalAlign=middle;whiteSpace=wrap;rounded=0;" vertex="1" parent="1">
          <mxGeometry x="90" y="148" width="77" height="16" as="geometry" />
        </mxCell>
        <mxCell id="AuxZQYyjT9rtBiiQ9wMm-16" value="&lt;font face=&quot;Old Standard TT&quot;&gt;&lt;font style=&quot;font-size: 11px&quot;&gt;Server&lt;/font&gt;&lt;br&gt;&lt;/font&gt;" style="text;html=1;strokeColor=none;fillColor=none;align=center;verticalAlign=middle;whiteSpace=wrap;rounded=0;" vertex="1" parent="1">
          <mxGeometry x="128" y="228" width="39" height="16" as="geometry" />
        </mxCell>
        <mxCell id="AuxZQYyjT9rtBiiQ9wMm-17" value="" style="html=1;verticalAlign=bottom;endArrow=none;dashed=1;endSize=8;dashPattern=1 2;labelBackgroundColor=none;strokeWidth=1;endFill=0;" edge="1" parent="1">
          <mxGeometry relative="1" as="geometry">
            <mxPoint x="620" y="320" as="sourcePoint" />
            <mxPoint x="180" y="320" as="targetPoint" />
          </mxGeometry>
        </mxCell>
        <mxCell id="AuxZQYyjT9rtBiiQ9wMm-18" value="&lt;font face=&quot;Old Standard TT&quot; style=&quot;font-size: 11px&quot;&gt;Database&amp;nbsp;&lt;/font&gt;" style="text;html=1;strokeColor=none;fillColor=none;align=center;verticalAlign=middle;whiteSpace=wrap;rounded=0;" vertex="1" parent="1">
          <mxGeometry x="118" y="308" width="49" height="16" as="geometry" />
        </mxCell>
        <mxCell id="AuxZQYyjT9rtBiiQ9wMm-19" value="&lt;font face=&quot;Old Standard TT&quot; style=&quot;font-size: 10px&quot;&gt;Wait for Data&lt;/font&gt;" style="html=1;verticalAlign=bottom;endArrow=none;dashed=1;endSize=8;dashPattern=1 2;labelBackgroundColor=none;strokeWidth=1;endFill=0;" edge="1" parent="1">
          <mxGeometry relative="1" as="geometry">
            <mxPoint x="620" y="240" as="sourcePoint" />
            <mxPoint x="180" y="240" as="targetPoint" />
          </mxGeometry>
        </mxCell>
      </root>
    </mxGraphModel>
  </diagram>
</mxfile>
